<?xml version="1.0" encoding="UTF-8" standalone="no"?>
<!-- Created with Inkscape (http://www.inkscape.org/) -->

<svg
   width="248"
   height="32"
   viewBox="0 0 248 32.000001"
   version="1.1"
   id="svg4630"
   inkscape:version="1.3.2 (091e20ef0f, 2023-11-25, custom)"
   sodipodi:docname="input.svg"
   xmlns:inkscape="http://www.inkscape.org/namespaces/inkscape"
   xmlns:sodipodi="http://sodipodi.sourceforge.net/DTD/sodipodi-0.dtd"
   xmlns="http://www.w3.org/2000/svg"
   xmlns:svg="http://www.w3.org/2000/svg"
   xmlns:rdf="http://www.w3.org/1999/02/22-rdf-syntax-ns#"
   xmlns:cc="http://creativecommons.org/ns#"
   xmlns:dc="http://purl.org/dc/elements/1.1/">
  <defs
     id="defs4624" />
  <sodipodi:namedview
     id="base"
     pagecolor="#d0d0d0"
     bordercolor="#666666"
     borderopacity="1.0"
     inkscape:pageopacity="0"
     inkscape:pageshadow="2"
     inkscape:zoom="22.4"
     inkscape:cx="226.875"
     inkscape:cy="7.8571428"
     inkscape:document-units="px"
     inkscape:current-layer="layer1"
     showgrid="true"
     units="px"
     scale-x="1"
     inkscape:showpageshadow="false"
     inkscape:pagecheckerboard="true"
     inkscape:snap-page="true"
     inkscape:window-width="1367"
     inkscape:window-height="825"
     inkscape:window-x="321"
     inkscape:window-y="31"
     inkscape:window-maximized="0"
     inkscape:deskcolor="#d1d1d1">
    <inkscape:grid
       type="xygrid"
       id="grid6152"
       originx="0"
       originy="0"
       spacingy="1"
       spacingx="1"
       units="px"
       visible="true" />
  </sodipodi:namedview>
  <metadata
     id="metadata4627">
    <rdf:RDF>
      <cc:Work
         rdf:about="">
        <dc:format>image/svg+xml</dc:format>
        <dc:type
           rdf:resource="http://purl.org/dc/dcmitype/StillImage" />
      </cc:Work>
    </rdf:RDF>
  </metadata>
  <g
     inkscape:label="Layer 1"
     inkscape:groupmode="layer"
     id="layer1"
     transform="translate(0,-1094.5197)">
    <path
       id="rect5175"
       style="fill:#000000;fill-opacity:1;stroke-width:0.0662532;stroke-miterlimit:4;stroke-dasharray:none"
       d="m 0,1057.0557 v 26 h 244 v -26 z m 1,1.0833 h 242 v 23.8333 H 1 Z" />
    <path
       id="rect2"
       style="fill:#eff7ff;fill-opacity:0.45098;stroke-width:0.0662532;stroke-miterlimit:4;stroke-dasharray:none"
       d="m 1,1058.1389 v 23.8334 h 242 v -23.8334 z m 1,1.0834 h 240 v 21.6667 H 2 Z" />
    <rect
       style="fill:#0f1212;fill-opacity:1;stroke-width:0.0662533;stroke-miterlimit:4;stroke-dasharray:none"
       id="rect4"
       width="240"
       height="23.999985"
       x="4"
       y="1098.5197" />
    <path
       id="rect5"
       style="fill:#eff7ff;fill-opacity:0.04;stroke-width:0.0662532;stroke-miterlimit:4;stroke-dasharray:none"
       d="M 0 1094.5197 L 0 1126.5197 L 248 1126.5197 L 248 1094.5197 L 0 1094.5197 z M 1 1095.5197 L 247 1095.5197 L 247 1125.5197 L 1 1125.5197 L 1 1095.5197 z " />
    <path
       id="rect7"
       style="fill:#eff7ff;fill-opacity:0.12;stroke-width:0.0662532;stroke-miterlimit:4;stroke-dasharray:none"
       d="M 1 1095.5197 L 1 1125.5197 L 247 1125.5197 L 247 1095.5197 L 1 1095.5197 z M 2 1096.5197 L 246 1096.5197 L 246 1124.5197 L 2 1124.5197 L 2 1096.5197 z " />
    <path
       id="rect9"
       style="fill:#000000;fill-opacity:1;stroke-width:0.0662532;stroke-miterlimit:4;stroke-dasharray:none"
       d="M 2 1096.5197 L 2 1124.5197 L 246 1124.5197 L 246 1096.5197 L 2 1096.5197 z M 3 1097.5197 L 245 1097.5197 L 245 1123.5197 L 3 1123.5197 L 3 1097.5197 z " />
    <path
       id="rect11"
       style="fill:#eff7ff;fill-opacity:0.4509804;stroke-width:0.0662532;stroke-miterlimit:4;stroke-dasharray:none"
       d="M 3 1097.5197 L 3 1123.5197 L 245 1123.5197 L 245 1097.5197 L 3 1097.5197 z M 4 1098.5197 L 244 1098.5197 L 244 1122.5197 L 4 1122.5197 L 4 1098.5197 z " />
  </g>
</svg>
