<?xml version="1.0" encoding="UTF-8" standalone="no"?>
<!-- Created with Inkscape (http://www.inkscape.org/) -->

<svg
   width="2560"
   height="1440"
   viewBox="0 0 2560 1440"
   version="1.1"
   id="svg1"
   inkscape:export-filename="bitmap7.png"
   inkscape:export-xdpi="96"
   inkscape:export-ydpi="96"
   inkscape:version="1.3.2 (091e20ef0f, 2023-11-25, custom)"
   sodipodi:docname="login screen.svg"
   xmlns:inkscape="http://www.inkscape.org/namespaces/inkscape"
   xmlns:sodipodi="http://sodipodi.sourceforge.net/DTD/sodipodi-0.dtd"
   xmlns:xlink="http://www.w3.org/1999/xlink"
   xmlns="http://www.w3.org/2000/svg"
   xmlns:svg="http://www.w3.org/2000/svg">
  <sodipodi:namedview
     id="namedview1"
     pagecolor="#d0d0d0"
     bordercolor="#111111"
     borderopacity="1"
     inkscape:showpageshadow="0"
     inkscape:pageopacity="0"
     inkscape:pagecheckerboard="1"
     inkscape:deskcolor="#d1d1d1"
     inkscape:document-units="px"
     inkscape:zoom="0.16157658"
     inkscape:cx="3589.6292"
     inkscape:cy="885.02926"
     inkscape:current-layer="layer1" />
  <defs
     id="defs1">
    <inkscape:path-effect
       effect="curvestitching"
       id="path-effect880"
       is_visible="true"
       lpeversion="1"
       count="20"
       startpoint_edge_variation="0;1"
       startpoint_spacing_variation="0;1"
       endpoint_edge_variation="0;1"
       endpoint_spacing_variation="0;1"
       strokepath="M0,0 L1,0"
       prop_scale="1"
       scale_y_rel="false" />
    <inkscape:path-effect
       effect="curvestitching"
       id="path-effect878"
       is_visible="true"
       lpeversion="1"
       count="20"
       startpoint_edge_variation="0;1"
       startpoint_spacing_variation="0;1"
       endpoint_edge_variation="0;1"
       endpoint_spacing_variation="0;1"
       strokepath="M0,0 L1,0"
       prop_scale="1"
       scale_y_rel="false" />
    <linearGradient
       id="linearGradient876"
       inkscape:collect="always">
      <stop
         style="stop-color:#eff7ff;stop-opacity:1;"
         offset="0"
         id="stop876" />
      <stop
         style="stop-color:#eff7ff;stop-opacity:0;"
         offset="1"
         id="stop877" />
    </linearGradient>
    <inkscape:path-effect
       effect="curvestitching"
       id="path-effect876"
       is_visible="true"
       lpeversion="1"
       count="20"
       startpoint_edge_variation="0;1"
       startpoint_spacing_variation="0;1"
       endpoint_edge_variation="0;1"
       endpoint_spacing_variation="0;1"
       strokepath="M0,0 L1,0"
       prop_scale="1"
       scale_y_rel="false" />
    <inkscape:path-effect
       effect="curvestitching"
       id="path-effect9"
       is_visible="true"
       lpeversion="1"
       count="22"
       startpoint_edge_variation="0;1"
       startpoint_spacing_variation="0;1"
       endpoint_edge_variation="0;1"
       endpoint_spacing_variation="0;1"
       strokepath="M 0,0 H 1"
       prop_scale="1"
       scale_y_rel="false" />
    <inkscape:path-effect
       effect="curvestitching"
       id="path-effect7"
       is_visible="true"
       lpeversion="1"
       count="22"
       startpoint_edge_variation="0;1"
       startpoint_spacing_variation="0;1"
       endpoint_edge_variation="0;1"
       endpoint_spacing_variation="0;1"
       strokepath="M 0,0 H 1"
       prop_scale="1"
       scale_y_rel="false" />
    <inkscape:path-effect
       effect="curvestitching"
       id="path-effect5"
       is_visible="true"
       lpeversion="1"
       count="22"
       startpoint_edge_variation="0;1"
       startpoint_spacing_variation="0;1"
       endpoint_edge_variation="0;1"
       endpoint_spacing_variation="0;1"
       strokepath="M 0,0 H 1"
       prop_scale="1"
       scale_y_rel="false" />
    <inkscape:path-effect
       effect="curvestitching"
       id="path-effect2"
       is_visible="true"
       lpeversion="1"
       count="22"
       startpoint_edge_variation="0;1"
       startpoint_spacing_variation="0;1"
       endpoint_edge_variation="0;1"
       endpoint_spacing_variation="0;1"
       strokepath="M 0,0 H 1"
       prop_scale="1"
       scale_y_rel="false" />
    <linearGradient
       inkscape:collect="always"
       xlink:href="#linearGradient876"
       id="linearGradient877"
       x1="1091.9049"
       y1="1441"
       x2="1091.9049"
       y2="1260"
       gradientUnits="userSpaceOnUse" />
    <linearGradient
       inkscape:collect="always"
       xlink:href="#linearGradient876"
       id="linearGradient878"
       gradientUnits="userSpaceOnUse"
       x1="1091.9049"
       y1="1441"
       x2="1091.9049"
       y2="1260" />
    <linearGradient
       inkscape:collect="always"
       xlink:href="#linearGradient876"
       id="linearGradient880"
       gradientUnits="userSpaceOnUse"
       x1="1091.9049"
       y1="1441"
       x2="1091.9049"
       y2="1260" />
  </defs>
  <g
     inkscape:label="Layer 1"
     inkscape:groupmode="layer"
     id="layer1">
    <rect
       style="opacity:1;fill:#060a0a;fill-opacity:1;stroke:none;stroke-width:2;paint-order:stroke fill markers"
       id="rect1"
       width="2560"
       height="1440"
       x="0"
       y="0" />
    <path
       id="path876"
       style="opacity:0.45;fill:#2b0000;fill-opacity:1;stroke:url(#linearGradient877);stroke-width:2;stroke-opacity:1;paint-order:stroke fill markers"
       d="M 2560,1440 H 0 m 2543.1579,-9.4737 H 16.842105 M 2526.3158,1421.0526 H 33.684211 M 2509.4737,1411.5789 H 50.526316 M 2492.6316,1402.1053 H 67.368421 M 2475.7895,1392.6316 H 84.210526 M 2458.9474,1383.1579 H 101.05263 m 2341.05267,-9.4737 H 117.89474 m 2307.36846,-9.4737 H 134.73684 m 2273.68426,-9.4737 H 151.57895 m 2239.99995,-9.4736 H 168.42105 m 2206.31575,-9.4737 H 185.26316 m 2172.63154,-9.4737 H 202.10526 m 2138.94734,-9.4737 H 218.94737 m 2105.26313,-9.4737 H 235.78947 m 2071.57893,-9.4737 H 252.63158 m 2037.89472,-9.4736 H 269.47368 m 2004.21052,-9.4737 H 286.31579 m 1970.52631,-9.4737 H 303.15789 M 2240,1260 H 320"
       inkscape:path-effect="#path-effect876"
       inkscape:original-d="M 2560,1440 2240,1260 M 0,1440 320,1260" />
    <path
       id="path877"
       style="opacity:0.45;fill:#2b0000;fill-opacity:1;stroke:url(#linearGradient878);stroke-width:2.00426;stroke-opacity:1;paint-order:stroke fill markers"
       d="M 2560,1440 H 0 m 2543.1579,-9.4737 H 16.842105 M 2526.3158,1421.0526 H 33.684211 M 2509.4737,1411.5789 H 50.526316 M 2492.6316,1402.1053 H 67.368421 M 2475.7895,1392.6316 H 84.210526 M 2458.9474,1383.1579 H 101.05263 m 2341.05267,-9.4737 H 117.89474 m 2307.36846,-9.4737 H 134.73684 m 2273.68426,-9.4737 H 151.57895 m 2239.99995,-9.4736 H 168.42105 m 2206.31575,-9.4737 H 185.26316 m 2172.63154,-9.4737 H 202.10526 m 2138.94734,-9.4737 H 218.94737 m 2105.26313,-9.4737 H 235.78947 m 2071.57893,-9.4737 H 252.63158 m 2037.89472,-9.4736 H 269.47368 m 2004.21052,-9.4737 H 286.31579 m 1970.52631,-9.4737 H 303.15789 M 2240,1260 H 320"
       inkscape:path-effect="#path-effect878"
       inkscape:original-d="M 2560,1440 2240,1260 M 0,1440 320,1260"
       transform="matrix(0,-0.5625,1.7702381,0,9.8570748,1440)" />
    <path
       id="path878"
       style="opacity:0.45;fill:#2b0000;fill-opacity:1;stroke:url(#linearGradient880);stroke-width:2.00426;stroke-opacity:1;paint-order:stroke fill markers"
       d="M 2560,1440 H 0 m 2543.1579,-9.4737 H 16.842105 M 2526.3158,1421.0526 H 33.684211 M 2509.4737,1411.5789 H 50.526316 M 2492.6316,1402.1053 H 67.368421 M 2475.7895,1392.6316 H 84.210526 M 2458.9474,1383.1579 H 101.05263 m 2341.05267,-9.4737 H 117.89474 m 2307.36846,-9.4737 H 134.73684 m 2273.68426,-9.4737 H 151.57895 m 2239.99995,-9.4736 H 168.42105 m 2206.31575,-9.4737 H 185.26316 m 2172.63154,-9.4737 H 202.10526 m 2138.94734,-9.4737 H 218.94737 m 2105.26313,-9.4737 H 235.78947 m 2071.57893,-9.4737 H 252.63158 m 2037.89472,-9.4736 H 269.47368 m 2004.21052,-9.4737 H 286.31579 m 1970.52631,-9.4737 H 303.15789 M 2240,1260 H 320"
       inkscape:path-effect="#path-effect880"
       inkscape:original-d="M 2560,1440 2240,1260 M 0,1440 320,1260"
       transform="matrix(0,-0.5625,-1.7702381,0,2549.2857,1440)" />
  </g>
</svg>
